# Made using Asset Forge (www.assetforge.io) version 1.3 

mtllib cannon.mtl 

v 0.18 -1.602965E-31 0.5000001
v 0.18 -1.602965E-31 -0.9999999
v -0.18 -1.602965E-31 0.5000001
v -0.18 -1.602965E-31 -0.9999999
v 0.1058 0.445 -0.9999999
v 0.18 0.135 -0.9999999
v 0.1058 0.445 0.5000001
v 0.18 0.135 0.5000001
v -0.18 0.135 -0.9999999
v -0.1058 0.445 -0.9999999
v -0.18 0.135 0.5000001
v -0.1058 0.445 0.5000001
v 0.18 -1.602965E-31 -2.5
v -0.1087942 0.07120579 -2.5
v -0.18 -1.602965E-31 -2.5
v -0.18 0.135 -2.5
v -0.1087942 0.1265969 -2.5
v -0.04962635 0.3737942 -2.5
v -0.1058 0.445 -2.5
v 0.04962635 0.3737942 -2.5
v 0.1087942 0.07120579 -2.5
v 0.18 0.135 -2.5
v 0.1087942 0.1265969 -2.5
v 0.1058 0.445 -2.5
v 0.1087942 0.1265969 -2.11
v 0.04962635 0.3737942 -2.11
v -0.04962635 0.3737942 -2.11
v -0.1087942 0.1265969 -2.11
vn 0 -1 0
vn 0.9725294 0.2327796 0
vn 0.9931086 0.1171975 0
vn 0.9969478 0.07807127 0
vn 1 0 0
vn -0.9931086 0.1171975 0
vn -0.9725294 0.2327796 0
vn -0.9877345 0.1561425 0
vn -1 0 0
vn 0 0 -3
vn 0 1 0
vn 0 0 3
vn -0.9969478 0.07807127 0
vn 0.9877345 0.1561425 0
vn -0.9931086 -0.1171975 0
vn -0.9725294 -0.2327796 0
vn -0.9877345 -0.1561425 0
vn 0.9725294 -0.2327796 0
vn 0.9877345 -0.1561425 0
vn 0.9931086 -0.1171975 0
vn 0 0.919971 -1.175959
vt -0.18 -0.5000001
vt -0.18 0.9999999
vt 0.18 -0.5000001
vt 0.18 0.9999999
vt 0.9999999 0.445
vt 0.9999999 0.135
vt -0.5000001 0.445
vt -0.5000001 0.135
vt 0.9999999 -1.602965E-31
vt -0.5000001 -1.602965E-31
vt -0.9999999 0.135
vt -0.9999999 0.445
vt 0.5000001 0.135
vt 0.5000001 0.445
vt 0.5000001 -1.602965E-31
vt -0.9999999 -1.602965E-31
vt -0.18 -1.602965E-31
vt 0.1087942 0.07120579
vt 0.18 -1.602965E-31
vt 0.18 0.135
vt 0.1087942 0.1265969
vt 0.04962635 0.3737942
vt 0.1058 0.445
vt -0.04962635 0.3737942
vt -0.1087942 0.07120579
vt -0.18 0.135
vt -0.1087942 0.1265969
vt -0.1058 0.445
vt -0.1058 -0.9999999
vt -0.1058 0.5000001
vt 0.1058 -0.9999999
vt 0.1058 0.5000001
vt -2.5 -1.602965E-31
vt -2.5 0.135
vt -2.5 0.445
vt -0.1058 -2.5
vt 0.1058 -2.5
vt 2.5 0.445
vt 2.5 0.135
vt 2.5 -1.602965E-31
vt -0.18 2.5
vt 0.18 2.5
vt -2.5 0.1265969
vt -2.5 0.3737942
vt -2.11 0.1265969
vt -2.11 0.3737942
vt 2.5 0.3737942
vt 2.5 0.1265969
vt 2.11 0.3737942
vt 2.11 0.1265969
vt -0.04962635 2.11
vt -0.04962635 2.5
vt 0.04962635 2.11
vt 0.04962635 2.5
vt -2.5 0.07120579
vt 2.5 0.07120579
vt -0.1087942 -2.5
vt -0.1087942 -2.11
vt 0.1087942 -2.5
vt 0.1087942 -2.11

usemtl _defaultMat (Instance)
usemap _defaultMat (Instance)
f 3/3/1 2/2/1 1/1/1
f 2/2/1 3/3/1 4/4/1
f 7/7/2 6/6/3 5/5/2
f 6/6/3 7/7/2 8/8/4
f 8/8/4 2/9/5 6/6/3
f 2/9/5 8/8/4 1/10/5
f 11/13/8 10/12/7 9/11/6
f 10/12/7 11/13/8 12/14/7
f 9/11/6 3/15/9 11/13/8
f 3/15/9 9/11/6 4/16/9
f 15/19/10 14/18/10 13/17/10
f 14/18/10 15/19/10 16/20/10
f 14/18/10 16/20/10 17/21/10
f 17/21/10 16/20/10 18/22/10
f 18/22/10 16/20/10 19/23/10
f 18/22/10 19/23/10 20/24/10
f 21/25/10 13/17/10 14/18/10
f 13/17/10 21/25/10 22/26/10
f 22/26/10 21/25/10 23/27/10
f 22/26/10 23/27/10 20/24/10
f 22/26/10 20/24/10 24/28/10
f 24/28/10 20/24/10 19/23/10
f 10/31/11 7/30/11 5/29/11
f 7/30/11 10/31/11 12/32/11
f 8/20/12 3/17/12 1/19/12
f 3/17/12 8/20/12 11/26/12
f 11/26/12 8/20/12 7/23/12
f 11/26/12 7/23/12 12/28/12

usemtl blueSteel (Instance)
usemap blueSteel (Instance)
f 4/16/9 16/34/13 15/33/9
f 16/34/13 4/16/9 9/11/6
f 9/11/6 19/35/7 16/34/13
f 19/35/7 9/11/6 10/12/7
f 19/37/11 5/29/11 24/36/11
f 5/29/11 19/37/11 10/31/11
f 5/5/2 22/39/14 24/38/2
f 22/39/14 5/5/2 6/6/3
f 6/6/3 13/40/5 22/39/14
f 13/40/5 6/6/3 2/9/5
f 4/4/1 13/41/1 2/2/1
f 13/41/1 4/4/1 15/42/1

usemtl black (Instance)
usemap black (Instance)
f 25/45/17 20/44/16 23/43/15
f 20/44/16 25/45/17 26/46/16
f 27/49/18 17/48/19 18/47/18
f 17/48/19 27/49/18 28/50/20
f 27/53/1 20/52/1 26/51/1
f 20/52/1 27/53/1 18/54/1
f 25/45/17 23/43/15 21/55/9
f 28/50/20 14/56/5 17/48/19
f 14/59/21 25/58/21 21/57/21
f 25/58/21 14/59/21 28/60/21
f 28/21/10 26/24/10 25/27/10
f 26/24/10 28/21/10 27/22/10
