# Made using Asset Forge (www.assetforge.io) version 1.3 

mtllib starship.mtl 

v 0.5 0.5 -0.5
v -0.5 0.5 -0.5
v 0.5 0.5 -0.8
v -0.5 0.5 -0.8
v 0.5 0.375 -0.5
v -0.5 0.375 -0.5
v -0.5 0.375 -0.8
v -0.315 0.138209 -1.5
v 0.315 0.138209 -1.5
v -0.315 0.276418 -1.5
v 0.315 0.276418 -1.5
v -0.4075 0.2911567 -1.15
v -0.4075 0.1941045 -1.15
v 0.5 0.375 -0.8
v 0.4075 0.2911567 -1.15
v 0.4075 0.1941045 -1.15
v 0.315 0 -1.5
v 0.5 0 -0.8
v -0.315 0 -1.5
v -0.5 0 -0.8
v 0.5 0.09656126 -0.5
v 0.4034387 0 -0.5
v -0.5 0.09656126 -0.5
v -0.4034387 0 -0.5
vn 0 1 0
vn 0 0.9947325 -0.1025057
vn 0 0.9787596 -0.2050113
vn 0 0 1
vn -0.9916667 0 -0.1288301
vn -0.9879859 0 -0.1545438
vn -1 0 0
vn 0 0 -1
vn -0.9668056 0 -0.2555127
vn -0.9668056 0 -0.2555128
vn -0.9668056 0 -0.2555129
vn -0.9668056 0 -0.2555129
vn 0 0.9525891 -0.3042597
vn 0.9812305 0 -0.1928386
vn 0.9916667 0 -0.1288301
vn 1 0 0
vn 0.9668056 0 -0.2555129
vn 0.9668056 0 -0.2555127
vn 0.9668056 0 -0.2555128
vn 0.9668056 0 -0.2555129
vn 0.9916667 0 -0.1288301
vn -0.9851645 0 -0.1716126
vn 0.6894745 -0.6894747 0.2219218
vn 0 -1 0
vn -0.6894745 -0.6894747 0.2219218
vt -0.5 -0.5
vt 0.5 -0.5
vt -0.5 -0.8
vt 0.5 -0.8
vt 0.5 0.375
vt -0.5 0.375
vt 0.5 0.5
vt -0.5 0.5
vt -0.8 0.375
vt -0.8 0.5
vt 0.315 0.138209
vt -0.315 0.138209
vt 0.315 0.276418
vt -0.315 0.276418
vt -1.5 0.138209
vt -1.15 0.2911567
vt -1.15 0.1941045
vt -1.5 0.276418
vt -0.315 -1.5
vt 0.315 -1.5
vt 0.8 0.5
vt 0.8 0.375
vt 1.5 0.276418
vt 1.5 0.138209
vt 1.15 0.2911567
vt 1.15 0.1941045
vt 1.5 0
vt 0.8 0
vt 0.315 0
vt -0.315 0
vt -1.5 0
vt -0.8 0
vt 0.5 0.09656126
vt -0.5 0.8
vt -0.4034387 0.5
vt -0.5 0.09656126
vt -0.315 1.5
vt 0.4034387 0.5
vt 0.315 1.5
vt 0.5 0.8
vt 0.4034387 0
vt -0.4034387 0

usemtl blueSteel (Instance)
usemap blueSteel (Instance)
f 3/3/2 2/2/1 1/1/1
f 2/2/1 3/3/2 4/4/3
f 1/7/4 6/6/4 5/5/4
f 6/6/4 1/7/4 2/8/4
f 6/6/7 4/10/6 7/9/5
f 4/10/6 6/6/7 2/8/7
f 10/13/8 9/12/8 8/11/8
f 9/12/8 10/13/8 11/14/8
f 13/17/11 12/16/10 8/15/9
f 4/10/6 8/15/9 12/16/10
f 8/15/9 4/10/6 10/18/12
f 4/10/6 12/16/10 7/9/5
f 11/19/13 4/4/3 3/3/2
f 4/4/3 11/19/13 10/20/13
f 1/7/16 14/22/15 3/21/14
f 14/22/15 1/7/16 5/5/16
f 3/21/14 9/24/18 11/23/17
f 9/24/18 3/21/14 15/25/19
f 15/25/19 3/21/14 14/22/15
f 16/26/20 9/24/18 15/25/19

usemtl _defaultMat (Instance)
usemap _defaultMat (Instance)
f 14/22/15 16/26/20 15/25/19
f 16/26/20 17/27/20 9/24/18
f 17/27/20 16/26/20 18/28/21
f 18/28/21 16/26/20 14/22/15
f 8/11/8 17/30/8 19/29/8
f 17/30/8 8/11/8 9/12/8
f 19/31/11 13/17/11 8/15/9
f 13/17/11 19/31/11 20/32/22
f 13/17/11 7/9/5 12/16/10
f 7/9/5 13/17/11 20/32/22
f 5/5/16 18/28/21 14/22/15
f 18/28/21 5/5/16 21/33/16
f 22/35/23 18/34/23 21/8/23
f 23/36/7 7/9/5 20/32/22
f 7/9/5 23/36/7 6/6/7
f 22/35/24 17/37/24 18/34/24
f 17/37/24 22/35/24 24/38/24
f 17/37/24 24/38/24 19/39/24
f 19/39/24 24/38/24 20/40/24
f 21/33/4 24/42/4 22/41/4
f 24/42/4 21/33/4 23/36/4
f 23/36/4 21/33/4 6/6/4
f 6/6/4 21/33/4 5/5/4
f 23/7/25 20/40/25 24/38/25
v 0.5 0.5 0.5
v -0.5 0.5 0.5
v 0.5 0.5 0.8
v -0.5 0.5 0.8
v 0.5 0.375 0.5
v -0.5 0.375 0.5
v -0.5 0.375 0.8
v -0.315 0.138209 1.5
v 0.315 0.138209 1.5
v -0.315 0.276418 1.5
v 0.315 0.276418 1.5
v -0.4075 0.2911567 1.15
v -0.4075 0.1941045 1.15
v 0.5 0.375 0.8
v 0.4075 0.2911567 1.15
v 0.4075 0.1941045 1.15
v 0.315 0 1.5
v 0.5 0 0.8
v -0.315 0 1.5
v -0.5 0 0.8
v 0.5 0.09656126 0.5
v 0.4034387 0 0.5
v -0.5 0.09656126 0.5
v -0.4034387 0 0.5
vn 0 0.9947325 0.1025057
vn 0 0.9787596 0.2050113
vn -0.9916667 0 0.1288301
vn -0.9879859 0 0.1545438
vn -0.9668056 0 0.2555127
vn -0.9668056 0 0.2555128
vn -0.9668056 0 0.2555129
vn -0.9668056 0 0.2555129
vn 0 0.9525891 0.3042597
vn 0.9812305 0 0.1928386
vn 0.9916667 0 0.1288301
vn 0.9668056 0 0.2555129
vn 0.9668056 0 0.2555127
vn 0.9668056 0 0.2555128
vn 0.9668056 0 0.2555129
vn 0.9916667 0 0.1288301
vn -0.9851645 0 0.1716126
vn 0.6894745 -0.6894747 -0.2219218
vn -0.6894745 -0.6894747 -0.2219218

usemtl blueSteel (Instance) (Instance)
usemap blueSteel (Instance) (Instance)
f 25/1/1 26/2/1 27/3/26
f 28/4/27 27/3/26 26/2/1
f 29/5/8 30/6/8 25/7/8
f 26/8/8 25/7/8 30/6/8
f 31/9/28 28/10/29 30/6/7
f 26/8/7 30/6/7 28/10/29
f 32/11/4 33/12/4 34/13/4
f 35/14/4 34/13/4 33/12/4
f 32/15/30 36/16/31 37/17/32
f 36/16/31 32/15/30 28/10/29
f 34/18/33 28/10/29 32/15/30
f 31/9/28 36/16/31 28/10/29
f 27/3/26 28/4/27 35/19/34
f 34/20/34 35/19/34 28/4/27
f 27/21/35 38/22/36 25/7/16
f 29/5/16 25/7/16 38/22/36
f 35/23/37 33/24/38 27/21/35
f 39/25/39 27/21/35 33/24/38
f 38/22/36 27/21/35 39/25/39
f 39/25/39 33/24/38 40/26/40

usemtl _defaultMat (Instance) (Instance)
usemap _defaultMat (Instance) (Instance)
f 39/25/39 40/26/40 38/22/36
f 33/24/38 41/27/40 40/26/40
f 42/28/41 40/26/40 41/27/40
f 38/22/36 40/26/40 42/28/41
f 43/29/4 41/30/4 32/11/4
f 33/12/4 32/11/4 41/30/4
f 32/15/30 37/17/32 43/31/32
f 44/32/42 43/31/32 37/17/32
f 36/16/31 31/9/28 37/17/32
f 44/32/42 37/17/32 31/9/28
f 38/22/36 42/28/41 29/5/16
f 45/33/16 29/5/16 42/28/41
f 45/8/43 42/34/43 46/35/43
f 44/32/42 31/9/28 47/36/7
f 30/6/7 47/36/7 31/9/28
f 42/34/24 41/37/24 46/35/24
f 48/38/24 46/35/24 41/37/24
f 43/39/24 48/38/24 41/37/24
f 44/40/24 48/38/24 43/39/24
f 46/41/8 48/42/8 45/33/8
f 47/36/8 45/33/8 48/42/8
f 30/6/8 45/33/8 47/36/8
f 29/5/8 45/33/8 30/6/8
f 48/38/44 44/40/44 47/7/44
v -0.5 0.5 -0.5000001
v -0.4999999 0.5 0.4999999
v -0.8 0.5 -0.5000001
v -0.7999999 0.5 0.5
v -0.5 0.375 -0.5000001
v -0.4999999 0.375 0.4999999
v -0.7999999 0.375 0.5
v -1.5 0.138209 0.3150001
v -1.5 0.138209 -0.315
v -1.5 0.276418 0.3150001
v -1.5 0.276418 -0.315
v -1.15 0.2911567 0.4075
v -1.15 0.1941045 0.4075
v -0.8 0.375 -0.5000001
v -1.15 0.2911567 -0.4075
v -1.15 0.1941045 -0.4075
v -1.5 0 -0.315
v -0.8 0 -0.5000001
v -1.5 0 0.3150001
v -0.7999999 0 0.5
v -0.5 0.09656126 -0.5000001
v -0.5 0 -0.4034389
v -0.4999999 0.09656126 0.4999999
v -0.4999999 0 0.4034387
vn -0.1025057 0.9947325 1.490116E-08
vn -0.2050113 0.9787596 2.980232E-08
vn 1 0 -1.192093E-07
vn -0.12883 0 0.9916669
vn -0.1545437 0 0.987986
vn 1.192093E-07 0 1
vn -1 0 1.192093E-07
vn -0.2555127 0 0.9668058
vn -0.2555127 0 0.9668058
vn -0.2555128 0 0.9668058
vn -0.2555128 0 0.9668058
vn -0.3042597 0.9525891 2.980232E-08
vn -0.1928387 0 -0.9812306
vn -0.1288302 0 -0.9916669
vn -1.192093E-07 0 -1
vn -0.2555131 0 -0.9668057
vn -0.2555129 0 -0.9668058
vn -0.255513 0 -0.9668057
vn -0.255513 0 -0.9668057
vn -0.1288302 0 -0.9916668
vn -0.1716125 0 0.9851646
vn 0.2219218 -0.6894747 -0.6894746
vn 0.2219219 -0.6894747 0.6894745
vt 0.5 -0.5000001
vt 0.4999999 0.5
vt 0.8 -0.5000001
vt 0.7999999 0.5
vt 0.5000001 0.375
vt -0.5 0.375
vt 0.5000001 0.5
vt -0.5 0.5
vt -0.7999999 0.375
vt -0.7999999 0.5
vt -0.4999999 0.375
vt -0.4999999 0.5
vt 0.3150001 0.138209
vt 0.3150001 0.276418
vt 1.5 -0.315
vt 1.5 0.3150001
vt 1.5 0.276418
vt 1.5 0.138209
vt 1.15 0.2911567
vt 1.15 0.1941045
vt 1.5 0
vt 0.3150001 0
vt -0.7999999 0
vt 0.5 0.5000001
vt 0.8 0.5000001
vt 0.5 0.4034388
vt -0.4999999 0.09656126
vt 1.5 0.315
vt 0.4999999 -0.4034387
vt 1.5 -0.3150001
vt 0.7999999 -0.5
vt 0.4034388 0
vt -0.4034387 0
vt 0.5000001 0.09656126
vt -0.5 0.09656126
vt 0.4999999 -0.5

usemtl blueSteel (Instance) (Instance)
usemap blueSteel (Instance) (Instance)
f 51/45/45 50/44/1 49/43/1
f 50/44/1 51/45/45 52/46/46
f 49/49/47 54/48/47 53/47/47
f 54/48/47 49/49/47 50/50/47
f 54/53/50 52/52/49 55/51/48
f 52/52/49 54/53/50 50/54/50
f 58/56/51 57/12/51 56/55/51
f 57/12/51 58/56/51 59/14/51
f 61/17/54 60/16/53 56/15/52
f 52/52/49 56/15/52 60/16/53
f 56/15/52 52/52/49 58/18/55
f 52/52/49 60/16/53 55/51/48
f 59/57/56 52/46/46 51/45/45
f 52/46/46 59/57/56 58/58/56
f 49/7/59 62/22/58 51/21/57
f 62/22/58 49/7/59 53/5/59
f 51/21/57 57/60/61 59/59/60
f 57/60/61 51/21/57 63/61/62
f 63/61/62 51/21/57 62/22/58
f 64/62/63 57/60/61 63/61/62

usemtl _defaultMat (Instance) (Instance)
usemap _defaultMat (Instance) (Instance)
f 62/22/58 64/62/63 63/61/62
f 64/62/63 65/63/63 57/60/61
f 65/63/63 64/62/63 66/28/64
f 66/28/64 64/62/63 62/22/58
f 56/55/51 65/30/51 67/64/51
f 65/30/51 56/55/51 57/12/51
f 67/31/54 61/17/54 56/15/52
f 61/17/54 67/31/54 68/65/65
f 61/17/54 55/51/48 60/16/53
f 55/51/48 61/17/54 68/65/65
f 53/5/59 66/28/64 62/22/58
f 66/28/64 53/5/59 69/33/59
f 70/68/66 66/67/66 69/66/66
f 71/69/50 55/51/48 68/65/65
f 55/51/48 71/69/50 54/53/50
f 70/68/24 65/70/24 66/67/24
f 65/70/24 70/68/24 72/71/24
f 65/70/24 72/71/24 67/72/24
f 67/72/24 72/71/24 68/73/24
f 69/76/47 72/75/47 70/74/47
f 72/75/47 69/76/47 71/77/47
f 71/77/47 69/76/47 54/48/47
f 54/48/47 69/76/47 53/47/47
f 71/78/67 68/73/67 72/71/67
v 0.4999999 0.5 0.4999999
v 0.5 0.5 -0.5000001
v 0.7999999 0.5 0.5
v 0.8 0.5 -0.5000001
v 0.4999999 0.375 0.4999999
v 0.5 0.375 -0.5000001
v 0.8 0.375 -0.5000001
v 1.5 0.138209 -0.315
v 1.5 0.138209 0.3150001
v 1.5 0.276418 -0.315
v 1.5 0.276418 0.3150001
v 1.15 0.2911567 -0.4075
v 1.15 0.1941045 -0.4075
v 0.7999999 0.375 0.5
v 1.15 0.2911567 0.4075
v 1.15 0.1941045 0.4075
v 1.5 0 0.3150001
v 0.7999999 0 0.5
v 1.5 0 -0.315
v 0.8 0 -0.5000001
v 0.4999999 0.09656126 0.4999999
v 0.4999999 0 0.4034387
v 0.5 0.09656126 -0.5000001
v 0.5 0 -0.4034389
vn 0.1025057 0.9947325 1.490116E-08
vn 0.2050113 0.9787596 2.980232E-08
vn -1 0 -1.192093E-07
vn 0.1288302 0 -0.9916669
vn 0.154544 0 -0.987986
vn 1.192093E-07 0 -1
vn 1 0 1.192093E-07
vn 0.2555129 0 -0.9668058
vn 0.255513 0 -0.9668057
vn 0.255513 0 -0.9668057
vn 0.2555131 0 -0.9668057
vn 0.3042597 0.9525891 2.980232E-08
vn 0.1928385 0 0.9812307
vn 0.12883 0 0.9916669
vn -1.192093E-07 0 1
vn 0.2555128 0 0.9668058
vn 0.2555127 0 0.9668058
vn 0.2555127 0 0.9668058
vn 0.2555128 0 0.9668058
vn 0.12883 0 0.9916669
vn 0.1716127 0 -0.9851646
vn -0.2219219 -0.6894747 0.6894745
vn -0.2219218 -0.6894747 -0.6894746
vt -0.4999999 0.5
vt -0.5 -0.5000001
vt -0.8 -0.5000001
vt 0.5 0.375
vt -0.5000001 0.375
vt 0.5 0.5
vt -0.5000001 0.5
vt -0.3150001 0.138209
vt -0.3150001 0.276418
vt -1.5 0.138209
vt -1.15 0.2911567
vt -1.15 0.1941045
vt -1.5 0.276418
vt -1.5 0.3150001
vt -1.5 -0.315
vt 0.7999999 0.375
vt 0.4999999 0.5
vt 0.4999999 0.375
vt 0.7999999 0
vt -0.3150001 0
vt -1.5 0
vt 0.4999999 0.09656126
vt -0.4999999 -0.5
vt -0.7999999 -0.5
vt -0.4999999 -0.4034387
vt -1.5 -0.3150001
vt -0.5 0.4034388
vt -1.5 0.315
vt -0.8 0.5000001
vt 0.4034387 0
vt -0.4034388 0
vt 0.5 0.09656126
vt -0.5000001 0.09656126
vt -0.5 0.5000001

usemtl blueSteel (Instance) (Instance)
usemap blueSteel (Instance) (Instance)
f 75/52/68 74/80/1 73/79/1
f 74/80/1 75/52/68 76/81/69
f 73/84/70 78/83/70 77/82/70
f 78/83/70 73/84/70 74/85/70
f 78/6/73 76/10/72 79/9/71
f 76/10/72 78/6/73 74/8/73
f 82/13/74 81/86/74 80/11/74
f 81/86/74 82/13/74 83/87/74
f 85/90/77 84/89/76 80/88/75
f 76/10/72 80/88/75 84/89/76
f 80/88/75 76/10/72 82/91/78
f 76/10/72 84/89/76 79/9/71
f 83/92/79 76/81/69 75/52/68
f 76/81/69 83/92/79 82/93/79
f 73/95/82 86/94/81 75/46/80
f 86/94/81 73/95/82 77/96/82
f 75/46/80 81/24/84 83/23/83
f 81/24/84 75/46/80 87/25/85
f 87/25/85 75/46/80 86/94/81
f 88/26/86 81/24/84 87/25/85

usemtl _defaultMat (Instance) (Instance)
usemap _defaultMat (Instance) (Instance)
f 86/94/81 88/26/86 87/25/85
f 88/26/86 89/27/86 81/24/84
f 89/27/86 88/26/86 90/97/87
f 90/97/87 88/26/86 86/94/81
f 80/11/74 89/98/74 91/29/74
f 89/98/74 80/11/74 81/86/74
f 91/99/77 85/90/77 80/88/75
f 85/90/77 91/99/77 92/32/88
f 85/90/77 79/9/71 84/89/76
f 79/9/71 85/90/77 92/32/88
f 77/96/82 90/97/87 86/94/81
f 90/97/87 77/96/82 93/100/82
f 94/103/89 90/102/89 93/101/89
f 95/36/73 79/9/71 92/32/88
f 79/9/71 95/36/73 78/6/73
f 94/103/24 89/104/24 90/102/24
f 89/104/24 94/103/24 96/105/24
f 89/104/24 96/105/24 91/106/24
f 91/106/24 96/105/24 92/107/24
f 93/110/70 96/109/70 94/108/70
f 96/109/70 93/110/70 95/111/70
f 95/111/70 93/110/70 78/83/70
f 78/83/70 93/110/70 77/82/70
f 95/112/90 92/107/90 96/105/90
v -0.5 0.375 0.5
v -0.5 0.5 0.5
v 0.5 0.5 0.5
v 0.5 0.375 0.5
v 0.5 0.09656126 0.5
v 0.4034387 0 0.5
v -0.4034387 0 0.5
v -0.5 0.09656126 0.5
vn 0.7071067 -0.7071068 0
vn -0.7071067 -0.7071068 0
vt -0.5 0.5
vt 0.5 0.5
vt -0.5 -0.5
vt -0.4034387 -0.5
vt 0.4034387 -0.5
vt 0.5 -0.5

usemtl blueSteel (Instance) (Instance)
usemap blueSteel (Instance) (Instance)
f 97/82/7 2/8/7 6/6/7
f 2/8/7 97/82/7 98/84/7
f 2/2/1 99/113/1 1/1/1
f 99/113/1 2/2/1 98/114/1
f 99/50/16 5/5/16 1/7/16
f 5/5/16 99/50/16 100/48/16

usemtl _defaultMat (Instance) (Instance)
usemap _defaultMat (Instance) (Instance)
f 101/115/91 22/35/91 21/8/91
f 22/35/91 101/115/91 102/116/91
f 101/33/4 103/42/4 102/41/4
f 103/42/4 101/33/4 104/36/4
f 104/36/4 101/33/4 97/6/4
f 97/6/4 101/33/4 100/5/4
f 97/6/4 100/5/4 98/8/4
f 98/8/4 100/5/4 99/7/4
f 103/117/24 22/35/24 102/116/24
f 22/35/24 103/117/24 24/38/24
f 100/48/16 21/33/16 5/5/16
f 21/33/16 100/48/16 101/77/16
f 104/118/92 24/38/92 103/117/92
f 24/38/92 104/118/92 23/7/92
f 23/33/8 22/42/8 24/41/8
f 22/42/8 23/33/8 21/36/8
f 21/36/8 23/33/8 6/5/8
f 21/36/8 6/5/8 5/6/8
f 5/6/8 6/5/8 2/7/8
f 5/6/8 2/7/8 1/8/8
f 104/110/7 6/6/7 23/36/7
f 6/6/7 104/110/7 97/82/7
v 0.07254341 0.4 0.5
v 0.07254341 0.4 -0.5
v -0.07254341 0.4 0.5
v -0.07254341 0.4 -0.5
v -0.07254341 0.5681803 0.1127099
v -0.07254341 0.5681803 0.5
v -0.07254341 0.6745632 0.1127099
v -0.07254341 1.037282 0.5
v -0.07254341 0.6745632 0.5
v 0.07254341 0.5681803 0.5
v 0.07254341 0.6745632 0.5
v 0.07254341 1.037282 0.5
v 0.07254341 0.6745632 0.1127099
v 0.07254341 0.5681803 0.1127099
v -0.193153 0.5681803 0.1127099
v -0.193153 0.6745632 0.1127099
v -0.07254341 0.5808511 -0.5
v -0.07254341 1.4 0.27458
v -0.07254341 1.4 0.5
v 0.5 0.5681803 0.5
v 0.5 0.5681803 0.4328801
v 0.193153 0.5681803 0.1127099
v 0.5 0.6745632 0.4328801
v 0.5 0.6745632 0.5
v 0.193153 0.6745632 0.1127099
v 0.07254341 1.4 0.5
v 0.07254341 0.5808511 -0.5
v 0.07254341 1.4 0.27458
v -0.5 0.5681803 0.4328801
v -0.5 0.6745632 0.4328801
v -0.5 0.5681803 0.5
v -0.5 0.6745632 0.5
vn 0 -0.8433107 0.5374264
vn -0.7219688 0 -0.6919256
vn 0 0.6870639 -0.7265971
vn 0.7219688 0 -0.6919256
vt -0.07254341 -0.5
vt -0.07254341 0.5
vt 0.07254341 -0.5
vt 0.07254341 0.5
vt -0.5 0.4
vt 0.1127099 0.5681803
vt 0.5 0.4
vt 0.5 0.5681803
vt 0.1127099 0.6745632
vt 0.5 1.037282
vt 0.5 0.6745632
vt 0.07254341 0.4
vt -0.07254341 0.4
vt 0.07254341 0.5681803
vt -0.07254341 0.5681803
vt 0.07254341 0.6745632
vt -0.07254341 0.6745632
vt 0.07254341 1.037282
vt -0.07254341 1.037282
vt 0.5 0.4
vt -0.1127099 0.6745632
vt -0.5 1.037282
vt -0.5 0.6745632
vt -0.1127099 0.5681803
vt -0.5 0.4
vt -0.5 0.5681803
vt 0.193153 0.5681803
vt 0.193153 0.6745632
vt -0.5 0.5808511
vt 0.27458 1.4
vt 0.5 1.4
vt -0.5 -0.4328801
vt -0.193153 -0.1127099
vt -0.07254341 -0.1127099
vt -0.5 0.4328801
vt -0.193153 0.1127099
vt -0.07254341 0.5
vt -0.07254341 0.1127099
vt 0.07254341 1.4
vt -0.07254341 1.4
vt 0.07254341 0.5808511
vt -0.07254341 0.5808511
vt -0.07254341 0.27458
vt 0.07254341 0.27458
vt 0.07254341 0.5
vt 0.4328801 0.5681803
vt 0.4328801 0.6745632
vt -0.193153 0.5681803
vt -0.193153 0.6745632
vt -0.4328801 0.6745632
vt -0.4328801 0.5681803
vt 0.07254341 -0.1127099
vt 0.193153 -0.1127099
vt 0.5 -0.4328801
vt 0.5 0.5808511
vt -0.27458 1.4
vt -0.5 1.4
vt 0.07254341 0.1127099
vt 0.193153 0.1127099
vt 0.5 0.4328801
vt 0.5 0.5681803
vt 0.5 0.6745632
vt -0.5 0.5681803
vt -0.5 0.6745632

usemtl blueSteel (Instance) (Instance)
usemap blueSteel (Instance) (Instance)
f 107/121/24 106/120/24 105/119/24
f 106/120/24 107/121/24 108/122/24
f 107/125/7 109/124/7 108/123/7
f 109/124/7 107/125/7 110/126/7
f 111/127/7 108/123/7 109/124/7
f 108/123/7 111/127/7 112/128/7
f 112/128/7 111/127/7 113/129/7
f 114/132/4 107/131/4 105/130/4
f 107/131/4 114/132/4 110/133/4
f 110/133/4 114/132/4 115/134/4
f 110/133/4 115/134/4 113/135/4
f 113/135/4 115/134/4 116/136/4
f 113/135/4 116/136/4 112/137/4
f 116/140/16 117/139/16 106/138/16
f 117/139/16 116/140/16 115/141/16
f 118/142/16 106/138/16 117/139/16
f 106/138/16 118/142/16 105/143/16
f 105/143/16 118/142/16 114/144/16

usemtl _defaultMat (Instance) (Instance)
usemap _defaultMat (Instance) (Instance)
f 119/145/8 111/134/8 109/132/8
f 111/134/8 119/145/8 120/146/8
f 112/121/93 106/120/93 116/119/93
f 106/120/93 112/121/93 108/122/93
f 112/128/7 121/147/7 108/123/7
f 121/147/7 112/128/7 122/148/7
f 122/148/7 112/128/7 123/149/7
f 114/119/24 125/150/24 124/115/24
f 125/150/24 114/119/24 126/151/24
f 126/151/24 114/119/24 118/152/24
f 129/154/1 128/113/1 127/153/1
f 128/113/1 129/154/1 115/155/1
f 115/155/1 129/154/1 117/156/1
f 130/157/4 112/137/4 116/136/4
f 112/137/4 130/157/4 123/158/4
f 121/159/8 106/131/8 108/130/8
f 106/131/8 121/159/8 131/160/8
f 122/162/1 130/155/1 132/161/1
f 130/155/1 122/162/1 123/163/1
f 133/164/94 120/127/94 119/124/94
f 120/127/94 133/164/94 134/165/94
f 135/126/7 134/165/7 133/164/7
f 134/165/7 135/126/7 136/129/7
f 117/135/8 126/166/8 118/133/8
f 126/166/8 117/135/8 129/167/8
f 122/157/95 131/160/95 121/159/95
f 131/160/95 122/157/95 132/158/95
f 128/141/16 125/169/16 127/168/16
f 125/169/16 128/141/16 124/144/16
f 135/118/24 109/170/24 110/121/24
f 109/170/24 135/118/24 119/171/24
f 119/171/24 135/118/24 133/172/24
f 132/174/16 106/138/16 131/173/16
f 106/138/16 132/174/16 116/140/16
f 116/140/16 132/174/16 130/175/16
f 120/177/1 113/163/1 111/176/1
f 113/163/1 120/177/1 136/114/1
f 136/114/1 120/177/1 134/178/1
f 127/168/96 126/142/96 129/139/96
f 126/142/96 127/168/96 125/169/96
f 128/180/4 114/132/4 124/179/4
f 114/132/4 128/180/4 115/134/4
f 113/135/4 135/181/4 110/133/4
f 135/181/4 113/135/4 136/182/4
